<svg width="766" height="766" fill="none" xmlns="http://www.w3.org/2000/svg"><g clip-path="url(#a)"><path fill="#fff" d="M0 0h766v766H0z"/><path d="M0 0h766v766H0V0Z" fill="#000"/><rect width="242.17" height="68.209" rx="34.105" transform="scale(-.99993 1.00007) rotate(-45 304.261 522.93)" fill="#F4E048"/><path d="M269.686 405.211a19.002 19.002 0 0 0-5.202-17.134l-44.69-44.696c-10.739-10.741-29.114-5.161-32.069 9.739l-27.743 139.865a19.003 19.003 0 0 0 5.201 17.133l44.69 44.696c10.74 10.741 29.115 5.161 32.07-9.738l27.743-139.865Z" fill="#F4E048"/><path d="M205.715 358.949a21.005 21.005 0 0 1 5.701 19.171l-10.1 48.052c-3.431 16.324-23.604 22.325-35.398 10.53l-7.355-7.357a21.004 21.004 0 0 1-5.702-19.17l10.1-48.053c3.431-16.324 23.605-22.325 35.398-10.53l7.356 7.357Z" fill="#F4E048" stroke="#000" stroke-width="8"/><path fill="#000" d="M292.65 438.925 77.271 223.517l-6.73 6.73 215.38 215.409z"/><rect width="242.17" height="68.209" rx="34.105" transform="rotate(-45.004 686.822 -400.616)" fill="#F4E048"/><path d="M495.444 405.211a19.004 19.004 0 0 1 5.201-17.134l44.69-44.696c10.739-10.741 29.115-5.161 32.07 9.739l27.743 139.865a19.001 19.001 0 0 1-5.202 17.133l-44.69 44.696c-10.739 10.741-29.114 5.161-32.07-9.738l-27.742-139.865Z" fill="#F4E048"/><path d="M559.415 358.949a21.003 21.003 0 0 0-5.701 19.171l10.099 48.052c3.432 16.324 23.605 22.325 35.398 10.53l7.356-7.357a21.004 21.004 0 0 0 5.701-19.17l-10.1-48.053c-3.431-16.324-23.604-22.325-35.397-10.53l-7.356 7.357Z" fill="#F4E048" stroke="#000" stroke-width="8"/><path fill="#000" d="m472.479 438.925 216.249-216.278 6.73 6.73-216.25 216.279z"/><path d="M313.562 226.195c-57.161 0-103.5 46.338-103.5 103.5v72.85c0 93.06 75.44 168.5 168.5 168.5h7.806c93.06 0 168.5-75.44 168.5-168.5v-72.85c0-57.162-46.339-103.5-103.5-103.5H313.562Z" fill="#fff" stroke="#000" stroke-width="17"/><path fill="#000" d="M298.927 75h167.075v248.532H298.927z"/><path fill="#000" d="M298.927 199.795h8.46v213.631h-8.46zM457.543 199.795h8.46v213.631h-8.46zM378.235 505.436h8.46V626h-8.46z"/><ellipse cx="299.407" cy="416.599" rx="29.608" ry="29.612" fill="#000"/><ellipse cx="466.483" cy="416.599" rx="29.608" ry="29.612" fill="#000"/><path d="M372.83 507.491c5.161 5.697 14.11 5.697 19.27 0l17.387-19.193c7.569-8.357 1.64-21.728-9.635-21.728h-34.774c-11.275 0-17.204 13.371-9.634 21.728l17.386 19.193Z" fill="#000"/></g><defs><clipPath id="a"><path fill="#fff" d="M0 0h766v766H0z"/></clipPath></defs></svg>
