<?xml version="1.0" encoding="UTF-8" standalone="no"?><!DOCTYPE svg PUBLIC "-//W3C//DTD SVG 1.1//EN" "http://www.w3.org/Graphics/SVG/1.1/DTD/svg11.dtd"><svg width="100%" height="100%" viewBox="0 0 630 630" version="1.1" xmlns="http://www.w3.org/2000/svg" xmlns:xlink="http://www.w3.org/1999/xlink" xml:space="preserve" xmlns:serif="http://www.serif.com/" style="fill-rule:evenodd;clip-rule:evenodd;"><g><rect x="-0" y="-0" width="630" height="630" style="fill:#fff;fill-rule:nonzero;"/><rect x="0" y="-0" width="630" height="630" style="fill-rule:nonzero;"/><path d="M17.29,153.199c13.309,-13.311 34.919,-13.311 48.227,-0l123.001,123.017c13.309,13.311 13.309,34.924 -0,48.235c-13.309,13.31 -34.919,13.31 -48.228,-0l-123,-123.018c-13.309,-13.311 -13.309,-34.924 -0,-48.234Z" style="fill:#f4e048;"/><path d="M201.686,337.211c1.233,-6.216 -0.721,-12.653 -5.202,-17.134l-44.69,-44.696c-10.739,-10.741 -29.114,-5.161 -32.069,9.739l-27.743,139.865c-1.233,6.215 0.721,12.652 5.201,17.133l44.69,44.696c10.74,10.741 29.115,5.161 32.07,-9.738l27.743,-139.865Z" style="fill:#f4e048;fill-rule:nonzero;"/><path d="M137.715,290.949c5.011,5.012 7.159,12.235 5.701,19.171l-10.1,48.052c-3.431,16.324 -23.604,22.325 -35.398,10.53l-7.355,-7.357c-5.011,-5.012 -7.159,-12.234 -5.702,-19.17l10.1,-48.053c3.431,-16.324 23.605,-22.325 35.398,-10.53l7.356,7.357Z" style="fill:#f4e048;fill-rule:nonzero;stroke:#000;stroke-width:8px;"/><path d="M224.65,370.925l-215.379,-215.408l-6.73,6.73l215.38,215.409l6.729,-6.731Z" style="fill-rule:nonzero;"/><path d="M611.843,153.195c-13.311,-13.309 -34.922,-13.308 -48.231,0.003l-123.001,123.018c-13.308,13.31 -13.307,34.922 0.004,48.231c13.31,13.309 34.922,13.307 48.231,-0.004l123,-123.017c13.309,-13.311 13.307,-34.922 -0.003,-48.231Z" style="fill:#f4e048;"/><path d="M427.444,337.211c-1.233,-6.215 0.721,-12.653 5.201,-17.134l44.69,-44.696c10.739,-10.741 29.115,-5.161 32.07,9.739l27.743,139.865c1.233,6.215 -0.721,12.652 -5.202,17.133l-44.69,44.696c-10.739,10.741 -29.114,5.161 -32.07,-9.738l-27.742,-139.865Z" style="fill:#f4e048;fill-rule:nonzero;"/><path d="M491.415,290.949c-5.011,5.012 -7.159,12.235 -5.701,19.171l10.099,48.052c3.432,16.324 23.605,22.325 35.398,10.53l7.356,-7.357c5.011,-5.012 7.159,-12.234 5.701,-19.17l-10.1,-48.053c-3.431,-16.324 -23.604,-22.325 -35.397,-10.53l-7.356,7.357Z" style="fill:#f4e048;fill-rule:nonzero;stroke:#000;stroke-width:8px;"/><path d="M404.479,370.925l216.249,-216.278l6.73,6.73l-216.25,216.279l-6.729,-6.731Z" style="fill-rule:nonzero;"/><path d="M245.562,158.195c-57.161,0 -103.5,46.338 -103.5,103.5l0,72.85c0,93.06 75.44,168.5 168.5,168.5l7.806,-0c93.06,-0 168.5,-75.44 168.5,-168.5l-0,-72.85c-0,-57.162 -46.339,-103.5 -103.5,-103.5l-137.806,-0Z" style="fill:#fff;fill-rule:nonzero;stroke:#000;stroke-width:17px;"/><rect x="230.927" y="7" width="167.075" height="248.532" style="fill-rule:nonzero;"/><path d="M230.927,131.795l8.46,-0l0,213.631l-8.46,-0l0,-213.631Zm158.616,-0l8.46,-0l0,213.631l-8.46,-0l0,-213.631Zm-79.308,305.641l8.46,-0l0,120.564l-8.46,0l0,-120.564Z" style="fill-rule:nonzero;"/><ellipse cx="231.407" cy="348.599" rx="29.608" ry="29.612"/><ellipse cx="398.483" cy="348.599" rx="29.608" ry="29.612"/><path d="M304.83,439.491c5.161,5.697 14.11,5.697 19.27,0l17.387,-19.193c7.569,-8.357 1.64,-21.728 -9.635,-21.728l-34.774,0c-11.275,0 -17.204,13.371 -9.634,21.728l17.386,19.193Z" style="fill-rule:nonzero;"/></g></svg>